<svg width="220" height="22" viewBox="0 0 220 22" fill="none" xmlns="http://www.w3.org/2000/svg">
<path fill-rule="evenodd" clip-rule="evenodd" d="M31.527 3.66675L16.683 10.8001L1.90475 3.66675L0 5.60008L11.4942 18.3334L16.683 13.0667L21.9375 18.3334L33.4317 5.60008L31.527 3.66675ZM42.125 17.0198V7.74121H44.596V8.70618C45.2916 8.31648 45.9505 8.01957 46.5729 7.83399C47.1952 7.64842 47.7993 7.55563 48.3484 7.55563C48.5314 7.55563 48.7328 7.57419 48.9341 7.61131C48.97 7.61859 49.0066 7.62587 49.044 7.63329C49.1969 7.6637 49.3616 7.69646 49.5382 7.74121V10.0237C49.4592 10.0009 49.3663 9.98505 49.2638 9.96759C49.2 9.95671 49.1325 9.9452 49.0623 9.93096C48.8792 9.89385 48.6779 9.87529 48.4765 9.87529C47.8542 9.87529 47.2501 9.98663 46.6644 10.1722C46.0787 10.3578 45.4197 10.6733 44.6875 11.0815V17.0198H42.125ZM58.3278 17.0198V15.2569H58.2362C57.8702 15.9435 57.3759 16.4446 56.7536 16.7415C56.1313 17.0569 55.3442 17.2054 54.3924 17.2054C53.6968 17.2054 53.0744 17.0941 52.4887 16.8714C51.903 16.6487 51.3905 16.3332 50.9695 15.925C50.5485 15.5167 50.219 15.0342 49.981 14.4589C49.7431 13.9022 49.6333 13.2713 49.6333 12.5661C49.6333 11.8238 49.7248 11.1557 49.9261 10.5434C50.1092 9.93096 50.4203 9.3928 50.8413 8.94743C51.244 8.50205 51.7748 8.16802 52.4155 7.92678C53.0378 7.68554 53.7883 7.55563 54.6669 7.55563C55.216 7.55563 55.7652 7.62986 56.3326 7.74121C56.9 7.87111 57.5407 8.05668 58.2362 8.29792V4.21533H60.7988V17.0198H58.3278ZM58.2362 12.0094V10.7104C57.7603 10.4691 57.2661 10.265 56.7353 10.1165C56.2045 9.96808 55.6736 9.87529 55.1245 9.87529C54.1361 9.87529 53.4222 10.0794 52.9646 10.4877C52.507 10.8959 52.2874 11.5269 52.2874 12.3805C52.2874 12.7702 52.324 13.1228 52.4338 13.4197C52.5253 13.7352 52.6901 13.995 52.9097 14.2177C53.1294 14.4404 53.4222 14.6074 53.7883 14.7187C54.1544 14.8301 54.6303 14.8857 55.1794 14.8857C56.1496 14.8857 56.9 14.6445 57.4309 14.1435C57.9617 13.6424 58.2362 12.9372 58.2362 12.0094ZM71.87 14.1435V16.5559C71.3575 16.7786 70.7535 16.927 70.0579 17.0384C69.3623 17.1497 68.6668 17.2054 67.9346 17.2054C67.0377 17.2054 66.2506 17.0941 65.5551 16.8528C64.8595 16.6301 64.2738 16.2961 63.7979 15.8693C63.3219 15.461 62.9559 14.9414 62.7179 14.3476C62.4617 13.7538 62.3518 13.1043 62.3518 12.3805C62.3518 11.6753 62.4617 11.0073 62.7179 10.4135C62.9559 9.81962 63.3219 9.31857 63.7979 8.89176C64.2738 8.4835 64.8595 8.14947 65.5551 7.90822C66.2506 7.68553 67.0377 7.55563 67.9346 7.55563C68.6668 7.55563 69.3623 7.61131 70.0579 7.72265C70.7535 7.83399 71.3575 8.00101 71.87 8.20514V10.6176C71.2111 10.3392 70.5887 10.1536 69.9664 10.0423C69.344 9.93096 68.74 9.87529 68.1909 9.87529C67.0743 9.87529 66.2689 10.098 65.7564 10.5434C65.2439 10.9887 65.0059 11.6011 65.0059 12.3805C65.0059 13.1785 65.2439 13.7909 65.7564 14.2362C66.2689 14.6816 67.0743 14.8857 68.1909 14.8857C68.74 14.8857 69.344 14.8486 69.9664 14.7373C70.5887 14.6259 71.2111 14.4404 71.87 14.1435ZM75.9813 17.0198H73.4187V4.21533H75.9813V17.0198ZM77.8947 17.0198V7.74121H80.3658V8.70618C81.0613 8.31648 81.7203 8.01957 82.3426 7.83399C82.965 7.64842 83.569 7.55563 84.1181 7.55563C84.3012 7.55563 84.5025 7.57419 84.7039 7.61131C84.7398 7.61859 84.7764 7.62587 84.8137 7.6333C84.9666 7.6637 85.1313 7.69646 85.3079 7.74121V10.0237C85.2289 10.0009 85.1361 9.98505 85.0336 9.96759C84.9698 9.95671 84.9022 9.9452 84.832 9.93096C84.6489 9.89385 84.4476 9.87529 84.2462 9.87529C83.6239 9.87529 83.0199 9.98663 82.4341 10.1722C81.8484 10.3578 81.1894 10.6733 80.4573 11.0815V17.0198H77.8947ZM84.7157 16.8157C84.4229 16.5559 84.2947 16.2219 84.2947 15.7765C84.2947 15.3682 84.4229 15.0156 84.7157 14.7558C84.9903 14.496 85.3747 14.3661 85.8506 14.3661C86.3265 14.3661 86.6926 14.496 86.9854 14.7558C87.26 15.0156 87.4064 15.3682 87.4064 15.7765C87.4064 16.2219 87.26 16.5559 86.9854 16.8157C86.6926 17.0755 86.3265 17.2054 85.8506 17.2054C85.3747 17.2054 84.9903 17.0755 84.7157 16.8157ZM88.6877 16.5559V14.2362C89.3467 14.5517 90.0605 14.7558 90.7927 14.8486C91.5249 14.9414 92.2937 14.9785 93.0807 14.9785C93.6665 14.9785 94.1058 14.9414 94.3987 14.8301C94.6732 14.7373 94.8196 14.5703 94.8196 14.3105C94.8196 14.1991 94.7464 14.1063 94.6366 14.0321C94.5268 13.9579 94.3804 13.8837 94.2156 13.828C94.0326 13.7723 93.8495 13.7166 93.6482 13.6795C93.5012 13.6524 93.364 13.6155 93.2437 13.583C93.1991 13.571 93.1569 13.5597 93.1174 13.5496L91.5615 13.1599C91.0124 13.03 90.5548 12.863 90.1887 12.6589C89.8043 12.4733 89.4931 12.2506 89.2552 12.0094C89.0172 11.7681 88.8525 11.5083 88.7426 11.2114C88.6328 10.9331 88.5962 10.6361 88.5962 10.3392C88.5962 10.0237 88.6694 9.68972 88.8342 9.35569C88.9989 9.02166 89.2552 8.72474 89.5846 8.46494C89.9141 8.20514 90.3534 7.98245 90.8659 7.81544C91.3785 7.64842 92.0008 7.55563 92.7147 7.55563C93.5384 7.55563 94.3071 7.61131 95.0027 7.72265C95.6982 7.83399 96.3206 8.00101 96.8331 8.20514V10.5248C96.1742 10.2464 95.5335 10.0609 94.9112 9.94952C94.2888 9.83818 93.6482 9.7825 92.9892 9.7825C92.4401 9.7825 92.0191 9.83818 91.7262 9.93096C91.4334 10.0423 91.2869 10.2093 91.2869 10.4506C91.2869 10.5619 91.3419 10.6547 91.4517 10.7289C91.5615 10.8032 91.7079 10.8774 91.891 10.9331C92.0557 10.9887 92.2388 11.0444 92.4401 11.0815L92.9892 11.1929L94.5085 11.564C95.0576 11.7125 95.5152 11.8795 95.8996 12.065C96.2657 12.2692 96.5769 12.4919 96.8148 12.7331C97.0345 12.9744 97.1992 13.2342 97.309 13.5311C97.4188 13.828 97.4738 14.1249 97.4738 14.4218C97.4738 14.7187 97.4006 15.0342 97.2541 15.3682C97.1077 15.7023 96.8514 15.9992 96.5219 16.259C96.1742 16.5373 95.7349 16.76 95.1857 16.9456C94.6366 17.1312 93.9777 17.2054 93.1723 17.2054C92.2571 17.2054 91.3968 17.1683 90.628 17.0569C89.8409 16.9642 89.2003 16.7971 88.6877 16.5559ZM107.828 14.1435V16.5559C107.315 16.7786 106.711 16.927 106.016 17.0384C105.32 17.1497 104.625 17.2054 103.892 17.2054C102.995 17.2054 102.208 17.0941 101.513 16.8528C100.817 16.6301 100.232 16.2961 99.7556 15.8693C99.2797 15.461 98.9137 14.9414 98.6757 14.3476C98.4194 13.7538 98.3096 13.1043 98.3096 12.3805C98.3096 11.6753 98.4194 11.0073 98.6757 10.4135C98.9137 9.81962 99.2797 9.31857 99.7556 8.89176C100.232 8.4835 100.817 8.14947 101.513 7.90822C102.208 7.68553 102.995 7.55563 103.892 7.55563C104.625 7.55563 105.32 7.61131 106.016 7.72265C106.711 7.83399 107.315 8.00101 107.828 8.20514V10.6176C107.169 10.3392 106.547 10.1536 105.924 10.0423C105.302 9.93096 104.698 9.87529 104.149 9.87529C103.032 9.87529 102.227 10.098 101.714 10.5434C101.202 10.9887 100.964 11.6011 100.964 12.3805C100.964 13.1785 101.202 13.7909 101.714 14.2362C102.227 14.6816 103.032 14.8857 104.149 14.8857C104.698 14.8857 105.302 14.8486 105.924 14.7373C106.547 14.6259 107.169 14.4404 107.828 14.1435ZM111.939 17.0198H109.377V4.21533H111.939V8.4835C112.397 8.29792 112.799 8.14947 113.165 8.03812C113.513 7.92678 113.843 7.83399 114.136 7.75976C114.428 7.68554 114.685 7.64842 114.941 7.61131C115.197 7.57419 115.454 7.55563 115.728 7.55563C116.314 7.55563 116.845 7.64842 117.321 7.81544C117.796 7.98245 118.217 8.2237 118.565 8.52061C118.895 8.83608 119.169 9.20723 119.352 9.63405C119.535 10.0794 119.627 10.5619 119.627 11.0815V17.0198H117.064V12.0094C117.064 11.3413 116.881 10.8217 116.515 10.4506C116.149 10.0794 115.637 9.87529 114.978 9.87529C114.648 9.87529 114.227 9.96808 113.696 10.1351C113.147 10.3207 112.561 10.5619 111.939 10.8959V17.0198ZM121.378 14.3847C121.122 13.7909 120.994 13.1228 120.994 12.3805C120.994 11.6382 121.122 10.9702 121.378 10.3763C121.635 9.7825 122.001 9.28146 122.477 8.85464C122.953 8.44638 123.538 8.11235 124.234 7.88967C124.929 7.66698 125.698 7.55563 126.577 7.55563C127.437 7.55563 128.206 7.66698 128.901 7.88967C129.597 8.11235 130.183 8.44638 130.659 8.85464C131.135 9.28146 131.519 9.7825 131.775 10.3763C132.031 10.9702 132.16 11.6382 132.16 12.3805C132.16 13.1228 132.031 13.7909 131.775 14.3847C131.519 14.9785 131.135 15.4981 130.659 15.9064C130.183 16.3332 129.597 16.6487 128.901 16.8714C128.206 17.0941 127.437 17.2054 126.577 17.2054C125.698 17.2054 124.929 17.0941 124.234 16.8714C123.538 16.6487 122.953 16.3332 122.477 15.9064C122.001 15.4981 121.635 14.9785 121.378 14.3847ZM126.577 9.87529C124.618 9.87529 123.648 10.7104 123.648 12.3805C123.648 14.0507 124.618 14.8857 126.577 14.8857C128.517 14.8857 129.505 14.0507 129.505 12.3805C129.505 10.7104 128.517 9.87529 126.577 9.87529ZM133.65 14.3847C133.394 13.7909 133.266 13.1228 133.266 12.3805C133.266 11.6382 133.394 10.9702 133.65 10.3763C133.906 9.7825 134.272 9.28146 134.748 8.85464C135.224 8.44638 135.81 8.11235 136.506 7.88967C137.201 7.66698 137.97 7.55563 138.848 7.55563C139.709 7.55563 140.478 7.66698 141.173 7.88967C141.869 8.11235 142.454 8.44638 142.93 8.85464C143.406 9.28146 143.791 9.7825 144.047 10.3763C144.303 10.9702 144.431 11.6382 144.431 12.3805C144.431 13.1228 144.303 13.7909 144.047 14.3847C143.791 14.9785 143.406 15.4981 142.93 15.9064C142.454 16.3332 141.869 16.6487 141.173 16.8714C140.478 17.0941 139.709 17.2054 138.848 17.2054C137.97 17.2054 137.201 17.0941 136.506 16.8714C135.81 16.6487 135.224 16.3332 134.748 15.9064C134.272 15.4981 133.906 14.9785 133.65 14.3847ZM138.848 9.87529C136.89 9.87529 135.92 10.7104 135.92 12.3805C135.92 14.0507 136.89 14.8857 138.848 14.8857C140.789 14.8857 141.777 14.0507 141.777 12.3805C141.777 10.7104 140.789 9.87529 138.848 9.87529ZM148.558 17.0198H145.995V4.21533H148.558V17.0198Z" fill="white"/>
<path d="M174.142 10.4499V17.4166H176.71V10.4499H179.92V8.24992H176.71C176.71 7.77325 176.838 7.42492 177.132 7.20492C177.407 6.98492 177.847 6.87492 178.452 6.87492C178.691 6.87492 178.948 6.89325 179.223 6.91158C179.48 6.94825 179.755 6.98492 180.011 7.05825V4.76658C179.791 4.69325 179.498 4.65659 179.168 4.61992C178.819 4.60159 178.489 4.58325 178.177 4.58325C177.48 4.58325 176.894 4.67492 176.38 4.83992C175.866 5.02325 175.463 5.26158 175.133 5.55492C174.803 5.86658 174.546 6.23325 174.381 6.65492C174.216 7.09492 174.142 7.55325 174.142 8.06658V8.24992H172.767V10.4499H174.142Z" fill="#F51B1B"/>
<path d="M180.835 8.24992V17.4166H183.403V11.5499C184.137 11.1466 184.797 10.8349 185.384 10.6516C185.971 10.4682 186.576 10.3582 187.199 10.3582C187.401 10.3582 187.603 10.3766 187.786 10.4132C187.97 10.4499 188.135 10.4682 188.263 10.5049V8.24992C188.043 8.19492 187.841 8.15825 187.658 8.12158C187.456 8.08492 187.254 8.06658 187.071 8.06658C186.521 8.06658 185.916 8.15825 185.292 8.34158C184.668 8.52492 184.008 8.81825 183.311 9.20325V8.24992H180.835Z" fill="#F51B1B"/>
<path d="M188.358 12.8332C188.358 13.5666 188.487 14.2266 188.744 14.8132C189 15.3999 189.367 15.9132 189.844 16.3166C190.321 16.7382 190.908 17.0499 191.605 17.2699C192.302 17.4899 193.072 17.5999 193.952 17.5999C194.814 17.5999 195.585 17.4899 196.281 17.2699C196.978 17.0499 197.565 16.7382 198.042 16.3166C198.519 15.9132 198.904 15.3999 199.161 14.8132C199.418 14.2266 199.546 13.5666 199.546 12.8332C199.546 12.0999 199.418 11.4399 199.161 10.8532C198.904 10.2666 198.519 9.77158 198.042 9.34992C197.565 8.94658 196.978 8.61658 196.281 8.39658C195.585 8.17658 194.814 8.06658 193.952 8.06658C193.072 8.06658 192.302 8.17658 191.605 8.39658C190.908 8.61658 190.321 8.94658 189.844 9.34992C189.367 9.77158 189 10.2666 188.744 10.8532C188.487 11.4399 188.358 12.0999 188.358 12.8332ZM191.018 12.8332C191.018 11.1832 191.99 10.3582 193.952 10.3582C195.896 10.3582 196.887 11.1832 196.887 12.8332C196.887 14.4832 195.896 15.3082 193.952 15.3082C191.99 15.3082 191.018 14.4832 191.018 12.8332Z" fill="#F51B1B"/>
<path d="M201.021 8.24992V17.4166H203.589V11.3666C204.212 11.0366 204.799 10.7982 205.35 10.6149C205.881 10.4499 206.303 10.3582 206.633 10.3582C207.294 10.3582 207.807 10.5599 208.174 10.9266C208.541 11.2932 208.724 11.8066 208.724 12.4666V17.4166H211.292V11.5499C211.292 11.0366 211.2 10.5599 211.017 10.1199C210.833 9.69825 210.558 9.33158 210.228 9.01992C209.88 8.72658 209.458 8.48825 208.981 8.32325C208.504 8.15825 207.972 8.06658 207.385 8.06658C207.11 8.06658 206.853 8.08492 206.597 8.12158C206.34 8.15825 206.046 8.19492 205.753 8.26825C205.46 8.34158 205.129 8.45158 204.763 8.56158C204.396 8.68992 203.974 8.83658 203.497 9.01992V8.24992H201.021Z" fill="#F51B1B"/>
<path d="M213.948 10.4499V13.9332C213.948 15.0699 214.259 15.9499 214.92 16.6099C215.58 17.2699 216.589 17.5999 217.983 17.5999C218.129 17.5999 218.313 17.5999 218.496 17.5816C218.679 17.5816 218.863 17.5632 219.046 17.5449C219.23 17.5266 219.395 17.5082 219.56 17.4716C219.725 17.4349 219.872 17.3982 220 17.3432V15.0516C219.707 15.1616 219.413 15.2166 219.101 15.2532C218.771 15.2899 218.496 15.3082 218.258 15.3082C217.652 15.3082 217.212 15.1982 216.937 14.9782C216.644 14.7582 216.515 14.3366 216.515 13.7499V10.4499H219.908V8.24992H216.515V5.59158H213.948V8.24992H212.297V10.4499H213.948Z" fill="#F51B1B"/>
<path fill-rule="evenodd" clip-rule="evenodd" d="M161.794 11L165.981 11C161.203 11.55 156.576 15.95 155.894 22L155.894 11L155.894 11L155.894 2.25207e-05C156.576 6.05005 161.203 10.45 165.981 11L161.794 11Z" fill="#F51B1B"/>
</svg>
