<svg width="24" height="24" viewBox="0 0 24 24" fill="none" xmlns="http://www.w3.org/2000/svg">
<mask id="path-1-inside-1_64_618" fill="white">
<path fill-rule="evenodd" clip-rule="evenodd" d="M2.00012 7.15124V16.0001C2.00012 17.6569 3.34327 19.0001 5.00012 19.0001H19.0001C20.657 19.0001 22.0001 17.6569 22.0001 16.0001V7.15198L14.7279 14.4242C13.2216 15.9305 10.7794 15.9305 9.27308 14.4242L2.00012 7.15124ZM21.5725 5.65083C21.5316 5.76205 21.4653 5.86854 21.3706 5.96323L13.8188 13.5151C12.8146 14.5193 11.1864 14.5193 10.1822 13.5151L2.63039 5.96323C2.53553 5.86837 2.46914 5.76168 2.42828 5.65024C2.88889 4.95697 3.67689 4.5 4.57162 4.5H19.4288C20.3237 4.5 21.1119 4.95722 21.5725 5.65083Z"/>
</mask>
<path fill-rule="evenodd" clip-rule="evenodd" d="M2.00012 7.15124V16.0001C2.00012 17.6569 3.34327 19.0001 5.00012 19.0001H19.0001C20.657 19.0001 22.0001 17.6569 22.0001 16.0001V7.15198L14.7279 14.4242C13.2216 15.9305 10.7794 15.9305 9.27308 14.4242L2.00012 7.15124ZM21.5725 5.65083C21.5316 5.76205 21.4653 5.86854 21.3706 5.96323L13.8188 13.5151C12.8146 14.5193 11.1864 14.5193 10.1822 13.5151L2.63039 5.96323C2.53553 5.86837 2.46914 5.76168 2.42828 5.65024C2.88889 4.95697 3.67689 4.5 4.57162 4.5H19.4288C20.3237 4.5 21.1119 4.95722 21.5725 5.65083Z" fill="white"/>
<path d="M2.00012 7.15124L2.35368 6.79768L1.50012 5.94413V7.15124H2.00012ZM22.0001 7.15198H22.5001V5.94487L21.6466 6.79842L22.0001 7.15198ZM14.7279 14.4242L15.0815 14.7777H15.0815L14.7279 14.4242ZM9.27308 14.4242L8.91953 14.7777L9.27308 14.4242ZM21.3706 5.96323L21.7241 6.31679L21.7241 6.31678L21.3706 5.96323ZM21.5725 5.65083L22.0418 5.82331L22.1292 5.5854L21.989 5.37425L21.5725 5.65083ZM13.8188 13.5151L13.4652 13.1615L13.8188 13.5151ZM10.1822 13.5151L9.82866 13.8686L10.1822 13.5151ZM2.63039 5.96323L2.98395 5.60968L2.98395 5.60968L2.63039 5.96323ZM2.42828 5.65024L2.01182 5.37354L1.87164 5.58453L1.95884 5.82236L2.42828 5.65024ZM2.50012 16.0001V7.15124H1.50012V16.0001H2.50012ZM5.00012 18.5001C3.61941 18.5001 2.50012 17.3808 2.50012 16.0001H1.50012C1.50012 17.9331 3.06712 19.5001 5.00012 19.5001V18.5001ZM19.0001 18.5001H5.00012V19.5001H19.0001V18.5001ZM21.5001 16.0001C21.5001 17.3808 20.3808 18.5001 19.0001 18.5001V19.5001C20.9331 19.5001 22.5001 17.9331 22.5001 16.0001H21.5001ZM21.5001 7.15198V16.0001H22.5001V7.15198H21.5001ZM21.6466 6.79842L14.3744 14.0706L15.0815 14.7777L22.3537 7.50553L21.6466 6.79842ZM14.3744 14.0706C13.0633 15.3817 10.9377 15.3817 9.62663 14.0706L8.91953 14.7777C10.6211 16.4793 13.3799 16.4793 15.0815 14.7777L14.3744 14.0706ZM9.62663 14.0706L2.35368 6.79768L1.64657 7.50479L8.91953 14.7777L9.62663 14.0706ZM21.7241 6.31678C21.8697 6.1712 21.9757 6.00305 22.0418 5.82331L21.1032 5.47835C21.0875 5.52106 21.0608 5.56588 21.017 5.60968L21.7241 6.31678ZM14.1723 13.8686L21.7241 6.31679L21.017 5.60968L13.4652 13.1615L14.1723 13.8686ZM9.82866 13.8686C11.0281 15.0681 12.9729 15.0681 14.1723 13.8686L13.4652 13.1615C12.6563 13.9704 11.3447 13.9704 10.5358 13.1615L9.82866 13.8686ZM2.27684 6.31679L9.82866 13.8686L10.5358 13.1615L2.98395 5.60968L2.27684 6.31679ZM1.95884 5.82236C2.02487 6.00245 2.13099 6.17094 2.27684 6.31679L2.98395 5.60968C2.94007 5.5658 2.91341 5.5209 2.89772 5.47812L1.95884 5.82236ZM4.57162 4C3.50243 4 2.56115 4.54673 2.01182 5.37354L2.84474 5.92694C3.21663 5.3672 3.85135 5 4.57162 5V4ZM19.4288 4H4.57162V5H19.4288V4ZM21.989 5.37425C21.4398 4.54704 20.4983 4 19.4288 4V5C20.1492 5 20.7841 5.36741 21.156 5.92741L21.989 5.37425Z" fill="white" fill-opacity="0.3" mask="url(#path-1-inside-1_64_618)"/>
</svg>
